<svg width="32" height="32" viewBox="0 0 32 32" xmlns="http://www.w3.org/2000/svg">
  <defs>
    <radialGradient id="starGradient" cx="50%" cy="50%" r="50%">
      <stop offset="0%" style="stop-color:#FFD700;stop-opacity:1" />
      <stop offset="100%" style="stop-color:#FF6B35;stop-opacity:0.8" />
    </radialGradient>
    
    <linearGradient id="bgGradient" x1="0%" y1="0%" x2="100%" y2="100%">
      <stop offset="0%" style="stop-color:#1a1a2e;stop-opacity:1" />
      <stop offset="100%" style="stop-color:#0f3460;stop-opacity:1" />
    </linearGradient>
  </defs>
  
  <!-- 背景圆形 -->
  <circle cx="16" cy="16" r="14" fill="url(#bgGradient)" stroke="#FFD700" stroke-width="1"/>
  
  <!-- 中央紫微星 -->
  <circle cx="16" cy="16" r="3" fill="url(#starGradient)" stroke="#FFD700" stroke-width="0.5"/>
  
  <!-- 简化的星光效果 -->
  <g transform="translate(16,16)" stroke="#FFD700" stroke-width="0.5" opacity="0.8">
    <line x1="-5" y1="0" x2="-4" y2="0"/>
    <line x1="4" y1="0" x2="5" y2="0"/>
    <line x1="0" y1="-5" x2="0" y2="-4"/>
    <line x1="0" y1="4" x2="0" y2="5"/>
  </g>
  
  <!-- 简化的宫位点 -->
  <g transform="translate(16,16)" fill="#4ECDC4" opacity="0.7">
    <circle cx="0" cy="-8" r="1"/>
    <circle cx="6" cy="-6" r="1"/>
    <circle cx="8" cy="0" r="1"/>
    <circle cx="6" cy="6" r="1"/>
    <circle cx="0" cy="8" r="1"/>
    <circle cx="-6" cy="6" r="1"/>
    <circle cx="-8" cy="0" r="1"/>
    <circle cx="-6" cy="-6" r="1"/>
  </g>
  
  <!-- 简化的连接线 -->
  <g transform="translate(16,16)" stroke="#4ECDC4" stroke-width="0.3" fill="none" opacity="0.5">
    <line x1="0" y1="0" x2="0" y2="-8"/>
    <line x1="0" y1="0" x2="6" y2="-6"/>
    <line x1="0" y1="0" x2="8" y2="0"/>
    <line x1="0" y1="0" x2="6" y2="6"/>
    <line x1="0" y1="0" x2="0" y2="8"/>
    <line x1="0" y1="0" x2="-6" y2="6"/>
    <line x1="0" y1="0" x2="-8" y2="0"/>
    <line x1="0" y1="0" x2="-6" y2="-6"/>
  </g>
</svg>